<svg id="Layer_1" data-name="Layer 1" xmlns="http://www.w3.org/2000/svg" viewBox="0 0 283.67 382.06"><g id="surface1"><path d="M134.64,61.2V-.09L0,87.35l23.14,52,0,0A129,129,0,0,1,134.65,61.21Zm7.09,33.39a95.67,95.67,0,1,1-95.67,95.67A95.68,95.68,0,0,1,141.73,94.59Zm5.73,28.56a65.51,65.51,0,0,1,27.93,8.9L177,130l2.9,4.89,4.5,3.37,8.37,1.14-2.65,4.09.17.29a67.32,67.32,0,0,1-44.42,113.71l0,0c-.6,1.91-1.52,4.76-2.06,6.46s-3.53,2.1-4.15.38-1.17-4.25-2.21-6.84h0A67.32,67.32,0,0,1,93.07,143.74l-2.8-4.23,8.37-1.14,4.5-3.37,2.9-4.89,1.6,2.06,0,0A70.09,70.09,0,0,1,136,123.05l0,.14c1.77-4,1.88-4.86,3.56-7.66-.09.3.83.64.77,1-.43,2.17-1.32,4.46-1.74,6.57l.06,0a35,35,0,0,1,6.14,0l.11-.06c-1.22-6-1.54-4.54-1.21-4.71a4,4,0,0,1,1.71-.12c.33.09.27.45.49,1C146.2,120,146.8,121.34,147.46,123.15Zm-83.35,84A5.44,5.44,0,0,1,71,210.65l3.4,10.47-16.84,5.47-3.4-10.46a5.46,5.46,0,0,1,3.49-6.86,5.53,5.53,0,0,1,3.7.34A5.51,5.51,0,0,1,64.11,207.16ZM65.36,211a1.33,1.33,0,0,0-.81.69,1.31,1.31,0,0,0-.09,1.06l2,6.14-4.4-.44L60.62,214a1.34,1.34,0,0,0-.69-.82,1.37,1.37,0,0,0-1.07-.08,1.33,1.33,0,0,0-.81.69,1.37,1.37,0,0,0-.08,1.07l2.15,6.61,9.14-3-2.15-6.62a1.38,1.38,0,0,0-1.75-.89Zm2-23.14,1.27,10.29-3.81,2.25-.7-5.75-6.66,4,11.66,3.54.56,4.52-18.54-5.63-.4-3.26Zm-15.72-12.5,3.88,2.11-.39,4.41,13.61,1.2-.36,4-13.6-1.19-.55,6.17-4-.35Zm5.9-19.58,3.25,3L59.34,163l12.92,4.45-1.32,3.83L58,166.8l-2,5.85-3.83-1.31Zm23.85-7.52L73.8,161.41l-15.34-8.85,2-3.51,11.83,6.84,5.56-9.64Zm10-11.21-10,11.46L68.09,136.89l10-11.45,1.89,4L73.8,136.5l2.1,1.82,5.65-6.48,3,2.64L79,141l2.1,1.82,7.3-8.4ZM101.49,123a5.45,5.45,0,0,1-1.34,7.58l-9,6.31-2.32-3.32,9-6.31a1.34,1.34,0,0,0,.58-.9,1.39,1.39,0,0,0-.24-1,1.34,1.34,0,0,0-.9-.58,1.39,1.39,0,0,0-1,.24l-4.55,3.19a5.44,5.44,0,1,1-6.24-8.91l9-6.31.87,4.33-7.56,5.3a1.35,1.35,0,0,0-.58.89,1.39,1.39,0,0,0,2.18,1.39l4.55-3.2a5.44,5.44,0,0,1,7.58,1.34ZM111,104.27l.26,4.41-3.94,2,6.2,12.17-3.61,1.83-6.2-12.17-5.52,2.81-1.84-3.6ZM132.22,118l-10.15,2.15-2.57-3.59,5.67-1.2-4.54-6.28L118.12,121l-4.46,1,4-19,3.22-.68Zm16.17-.39-5.62.1L136.38,111l1.7-4.08,4.68-.08a1.33,1.33,0,0,0,1-.43,1.4,1.4,0,0,0-1-2.36l-7,.13.24,13.66-4,.07-.31-17.71,11-.19a5.44,5.44,0,0,1,.19,10.87h-.91Zm22,5.3-7.33-2a8.84,8.84,0,0,1-6.26-10.85,8.86,8.86,0,0,1,10.84-6.26l7.33,2-2.76,3.45-5.62-1.51a4.81,4.81,0,1,0-2.48,9.29l3.42.91.72-2.68-4.16-1.12,2.76-3.45,6.36,1.7Zm16.46,9.5-9.07-5,.41-4.4,5.07,2.81.69-7.71-9.7,7.34-4-2.21,15.44-11.68,2.88,1.59Zm10.77,10.77-11.1-10.35,12.07-13,3,2.76-9.31,10,8.14,7.59Zm10.17,15.68-5.65-8.7,2.43-3.69,3.16,4.86,4.23-6.49-12,1.93L197.48,143l19.12-3.06,1.79,2.75Zm4.38,12.07-2.37-5.86a8.85,8.85,0,1,1,16.42-6.63l2.37,5.86-4.42-.13L222.48,160a4.8,4.8,0,1,0-8.91,3.6l2.37,5.87Zm20.21,12.61-4.31-1-.84-4.35-13.41,2.61-.78-4,13.41-2.61-1.18-6.08,4-.77Zm-17.78,7.22-.14-4.05,17.7-.62.14,4.05Zm-1.42,15.07.77-6.28a8.86,8.86,0,1,1,17.58,2.15l-.77,6.28-3.8-2.25.55-4.52a4.63,4.63,0,0,0-1-3.55,4.82,4.82,0,0,0-6.75-.83,4.63,4.63,0,0,0-1.81,3.21l-.77,6.28Zm-5.47,17.9,3.21-9.86,4.4-.44L213.55,219l7.71-.79L212.19,210l1.41-4.33L228,218.63l-1,3.12Zm-92.24,48.69A4.54,4.54,0,0,1,113,275a4.6,4.6,0,0,1-3.62,0l-8.87-3.59,5.77-14.28,8.87,3.58a4.57,4.57,0,0,1,2.58,2.54,4.51,4.51,0,0,1,0,3.62,4.79,4.79,0,0,1-2.29,2.28A4.79,4.79,0,0,1,115.49,272.43Zm-3.26-1.32a1.2,1.2,0,0,0,0-.93,1.15,1.15,0,0,0-.66-.64l-5.2-2.11,2.74-2.68,3.78,1.52a1.22,1.22,0,0,0,.92,0,1.19,1.19,0,0,0,.65-.67,1.2,1.2,0,0,0-.66-1.57l-5.61-2.27L105,269.51l5.61,2.27a1.2,1.2,0,0,0,.93,0A1.17,1.17,0,0,0,112.23,271.11Zm20.79,5a4.71,4.71,0,0,1-5.54,3.74l-9.39-1.83.66-3.45,9.4,1.83a1.21,1.21,0,0,0,.91-.18,1.19,1.19,0,0,0,.51-.78,1.22,1.22,0,0,0-.18-.91,1.19,1.19,0,0,0-.78-.51l-4.75-.92a4.73,4.73,0,0,1,1.8-9.29l9.4,1.83-2.18,3.16L125,267.3a1.14,1.14,0,0,0-.9.18,1.19,1.19,0,0,0-.33,1.68,1.12,1.12,0,0,0,.77.51l4.76.92a4.73,4.73,0,0,1,3.73,5.55Zm17.86,4.5-6.59.23a7.71,7.71,0,0,1-5.91-12.95,7.39,7.39,0,0,1,5.37-2.44l6.59-.23-1.41,3.57-5.06.17a4.1,4.1,0,0,0-2.92,1.33,4.18,4.18,0,0,0,3.21,7l3.08-.11-.08-2.42-3.74.13,1.41-3.57,5.72-.2Zm24.37-21-6.83,2.83,3.26,7.79,5.47-2.29a1.06,1.06,0,0,1,.34,2.09l-5,2.11,1.28,3.06,6.55-2.71a4.43,4.43,0,0,0,1.21-1.24,3.84,3.84,0,0,0,.27-3.65,4.92,4.92,0,0,0-2.69-2.9,4.65,4.65,0,0,0-1.7-.37l-3.57,1.49-.71-1.71,2.08-.87Zm-12.14,7.63-1.47,11.38,3.63-.93q.58-4,1.57-11.41l-.85-3.29-7.85,2,.85,3.29ZM67,226.12q12,23.15,30.69,34.37l1.88-3h0a79.77,79.77,0,0,1-29.38-32.91Zm-4.41,2.12c7,14.79,17.52,26.68,32.54,36.33l1.81-2.88a84.7,84.7,0,0,1-31.22-35l-3.13,1.51,3.13-1.51Zm153.24-.81q-12.39,22.95-31.3,33.82l-1.83-3h0a79.8,79.8,0,0,0,30-32.38Zm4.36,2.2c-7.28,14.67-18,26.4-33.22,35.78l0,0-1.75-2.91a84.72,84.72,0,0,0,31.84-34.4Z" transform="translate(0.2 0.09)" style="fill:#2b2913;fill-rule:evenodd"/><path d="M148.82,61.2V-.09L283.47,87.35l-23.14,52,0,0A129,129,0,0,0,148.82,61.21Z" transform="translate(0.2 0.09)" style="fill:#2b2913;fill-rule:evenodd"/><path d="M141.61,170.52c3.82,16.18,6,22.95,1.7,27-1.08,6,2.33,6.12,10.71,8.05q-1.32,12.88-10.91,24.22v3.1a55.12,55.12,0,0,1,9.87,7.63q-5.64,3.28-11.37,23.93v-.06q-5.73-20.66-11.38-23.93a54.29,54.29,0,0,1,9.88-7.62v-3.11q-9.6-11.34-10.91-24.22c8.38-1.93,11.78-2.09,10.7-8.05-4.27-4.09-2.12-10.86,1.71-27Z" transform="translate(0.2 0.09)" style="fill:#2b2913;fill-rule:evenodd"/><path d="M138.22,229.74c-26.11-8.72-24.4-51.36,1.87-114.12-10.82,30.55-13.42,63.95-4.54,86.4-1.61,1.18-4.28,1.93-8,2.25Q129.5,219.75,138.22,229.74Z" transform="translate(0.2 0.09)" style="fill:#2b2913;fill-rule:evenodd"/><path d="M137.67,232.56c-23.34.44-33.41-35.6-25.79-91.72q.09,31.08,5.71,44.82-4.09,37.64,20.35,45.68Z" transform="translate(0.2 0.09)" style="fill:#2b2913;fill-rule:evenodd"/><path d="M109.85,201.48q5.9,31.7,25.79,32.68c-14,8.54-38.1-18.74-40.07-66.86Q101,189.76,109.85,201.48Z" transform="translate(0.2 0.09)" style="fill:#2b2913;fill-rule:evenodd"/><path d="M129.75,238.5l1.93-1.51q-13.5,0-24.59-18.46-7.78-4-15-19.12Q106.77,238.26,129.75,238.5Z" transform="translate(0.2 0.09)" style="fill:#2b2913;fill-rule:evenodd"/><path d="M128.71,239.59q-8.64,1.23-19.14-4.75,10.91,9.09,21.25,9.07c-1.51-1.82-2.57-2.76-3.17-2.82Z" transform="translate(0.2 0.09)" style="fill:#2b2913;fill-rule:evenodd"/><path d="M145,229.8c26.11-8.71,25.76-49.15-.51-111.91,10.82,30.55,12.06,61.74,3.17,84.2,1.62,1.17,4.28,1.92,8,2.24Q153.71,219.81,145,229.8Z" transform="translate(0.2 0.09)" style="fill:#2b2913;fill-rule:evenodd"/><path d="M145.55,232.62c23.33.44,33.4-35.6,25.79-91.72q-.09,31.08-5.71,44.82,4.1,37.62-20.36,45.68C145.36,231.8,145.46,232.21,145.55,232.62Z" transform="translate(0.2 0.09)" style="fill:#2b2913;fill-rule:evenodd"/><path d="M173.37,201.55q-5.91,31.68-25.8,32.67c14,8.54,38.11-18.74,40.07-66.86Q182.26,189.83,173.37,201.55Z" transform="translate(0.2 0.09)" style="fill:#2b2913;fill-rule:evenodd"/><path d="M153.47,238.55l-1.93-1.5q13.49,0,24.59-18.46,7.78-4,15-19.12Q176.46,238.32,153.47,238.55Z" transform="translate(0.2 0.09)" style="fill:#2b2913;fill-rule:evenodd"/><path d="M154.5,239.64q8.66,1.26,19.14-4.75Q162.74,244,152.39,244c1.52-1.82,2.57-2.76,3.17-2.82C155.21,240.65,154.86,240.14,154.5,239.64Z" transform="translate(0.2 0.09)" style="fill:#2b2913;fill-rule:evenodd"/><path d="M119.34,237.55A28.89,28.89,0,0,1,105.27,230c-1.72-.47-2.12.12-1.22,1.79q12.36,12.51,28,14.14a14.66,14.66,0,0,1,3.25,6.41h0c-27.8-3.49-48.73-28.2-48.73-57.51a59.41,59.41,0,0,1,15.56-40.29h0l-9.53-13.93,6.66-.89,10.67,15.57q-6.63,5.58-12,15.72l-.11.22c-2.29-10.5-4.11-6.49-2.63,6.41q-3,8.15-2.79,19.51C84.55,186.05,98.07,230.25,119.34,237.55Z" transform="translate(0.2 0.09)" style="fill:#2b2913;fill-rule:evenodd"/><path d="M164.11,237.45a29,29,0,0,0,14.07-7.54q2.56-.71,1.22,1.79-12.36,12.53-28,14.14a14.66,14.66,0,0,0-3.25,6.41c27.79-3.49,48.73-28.19,48.73-57.51a59.38,59.38,0,0,0-15.56-40.28h0l9.53-13.92-6.67-.9-10.66,15.57q6.63,5.58,12,15.72l.1.22c2.29-10.5,4.11-6.49,2.64,6.41a54.37,54.37,0,0,1,2.78,19.51c7.85-11.14-5.67,33.07-26.94,40.38Z" transform="translate(0.2 0.09)" style="fill:#2b2913;fill-rule:evenodd"/><path d="M109.76,147.66l-6.94-10.13,3.58-5.44,4.86,7.1A62.32,62.32,0,0,0,109.76,147.66Z" transform="translate(0.2 0.09)" style="fill:#2b2913;fill-rule:evenodd"/><path d="M173.69,147.55l6.94-10.13L177.05,132l-4.86,7.11A65.43,65.43,0,0,1,173.69,147.55Z" transform="translate(0.2 0.09)" style="fill:#2b2913;fill-rule:evenodd"/><path d="M113.68,152.32v-9.6l1.1,1.6A53.49,53.49,0,0,1,130,138.25c-.77,2.31-1.54,4.63-2.3,6.94A47.08,47.08,0,0,0,113.68,152.32Z" transform="translate(0.2 0.09)" style="fill:#2b2913;fill-rule:evenodd"/><path d="M169.77,152.21v-9.6l-1.1,1.61a53.79,53.79,0,0,0-15.25-6.08c.77,2.32,1.53,4.63,2.3,6.94A47.55,47.55,0,0,1,169.77,152.21Z" transform="translate(0.2 0.09)" style="fill:#2b2913;fill-rule:evenodd"/><path d="M134.13,143.67a47.83,47.83,0,0,1,15.2,0v0a33.34,33.34,0,0,0-1.36-6.35v0a53.64,53.64,0,0,0-12.54,0A31,31,0,0,0,134.13,143.67Z" transform="translate(0.2 0.09)" style="fill:#2b2913;fill-rule:evenodd"/><path d="M42.64,122.68l12.44,16.64q29.06-45.75,82.4-49V70.8Q78.59,73.65,42.64,122.68Z" transform="translate(0.2 0.09)" style="fill:#2b2913;fill-rule:evenodd"/><path d="M51,147.31Q41.81,166,41.4,190.15L22.64,176.91Q26.51,148.77,38,130.24Z" transform="translate(0.2 0.09)" style="fill:#2b2913;fill-rule:evenodd"/><path d="M41.85,199.73a99.19,99.19,0,0,0,9.51,34l-23.77-7A119.7,119.7,0,0,1,22,186.34C41.82,199.45,41.85,199.73,41.85,199.73Z" transform="translate(0.2 0.09)" style="fill:#2b2913;fill-rule:evenodd"/><path d="M31.54,237.21A119.81,119.81,0,0,0,51.3,268.6l25.63-2.05a100.14,100.14,0,0,1-19.43-22Z" transform="translate(0.2 0.09)" style="fill:#2b2913;fill-rule:evenodd"/><path d="M59.36,277A119.76,119.76,0,0,0,82.89,294.3l19.78-12a100.55,100.55,0,0,1-15-7.9Z" transform="translate(0.2 0.09)" style="fill:#2b2913;fill-rule:evenodd"/><path d="M91.75,298.81a118.72,118.72,0,0,0,20.6,7.21l10.45-17.66A101.15,101.15,0,0,1,113,286Z" transform="translate(0.2 0.09)" style="fill:#2b2913;fill-rule:evenodd"/><path d="M120.92,307.82a120.3,120.3,0,0,0,16.56,1.68V290q-2.44-.08-6.45-.45Z" transform="translate(0.2 0.09)" style="fill:#2b2913;fill-rule:evenodd"/><path d="M240.17,122.5l-12.44,16.64q-29.05-45.75-82.4-49V70.63Q204.22,73.47,240.17,122.5Z" transform="translate(0.2 0.09)" style="fill:#2b2913;fill-rule:evenodd"/><path d="M231.79,147.13Q241,165.82,241.41,190l18.76-13.24q-3.87-28.12-15.37-46.67Z" transform="translate(0.2 0.09)" style="fill:#2b2913;fill-rule:evenodd"/><path d="M241,199.55a99.35,99.35,0,0,1-9.51,33.95l23.76-7a119.45,119.45,0,0,0,5.63-40.31C241,199.28,241,199.55,241,199.55Z" transform="translate(0.2 0.09)" style="fill:#2b2913;fill-rule:evenodd"/><path d="M251.27,237a119.22,119.22,0,0,1-19.77,31.4l-25.62-2.05a101,101,0,0,0,19.44-22Z" transform="translate(0.2 0.09)" style="fill:#2b2913;fill-rule:evenodd"/><path d="M223.45,276.8a119.82,119.82,0,0,1-23.53,17.33l-19.78-12a99.39,99.39,0,0,0,15.05-7.89Z" transform="translate(0.2 0.09)" style="fill:#2b2913;fill-rule:evenodd"/><path d="M191.06,298.63a117.89,117.89,0,0,1-20.6,7.21L160,288.18a100.78,100.78,0,0,0,9.85-2.37Z" transform="translate(0.2 0.09)" style="fill:#2b2913;fill-rule:evenodd"/><path d="M161.89,307.64a118.76,118.76,0,0,1-16.56,1.68v-19.5q2.44-.06,6.45-.45Z" transform="translate(0.2 0.09)" style="fill:#2b2913;fill-rule:evenodd"/></g><path d="M148.82,320.68V382l134.65-87.44-23.14-52,0,0a129,129,0,0,1-111.48,78.13Z" transform="translate(0.2 0.09)" style="fill:#2b2913;fill-rule:evenodd"/><path d="M134.45,320.68V382L-.2,294.53l23.14-52,0,0a129,129,0,0,0,111.48,78.13Z" transform="translate(0.2 0.09)" style="fill:#2b2913;fill-rule:evenodd"/></svg>