<svg id="Layer_1" data-name="Layer 1" xmlns="http://www.w3.org/2000/svg" xmlns:xlink="http://www.w3.org/1999/xlink" viewBox="0 0 283.4727 464.8945"><defs><style>.cls-1,.cls-2{fill:#bfbfbf;}.cls-2{fill-rule:evenodd;}.cls-3{clip-path:url(#clip-path);}.cls-4{clip-path:url(#clip-path-2);}</style><clipPath id="clip-path" transform="translate(0 0.0938)"><rect class="cls-1" x="99" y="311" width="36" height="153.8008"/></clipPath><clipPath id="clip-path-2" transform="translate(0 0.0938)"><rect class="cls-1" x="148" y="311" width="36" height="153.8008"/></clipPath></defs><g id="surface1"><path class="cls-2" d="M134.6445,61.1953V-.0938L0,87.3477,23.1406,139.32l.0274.0195A129.0049,129.0049,0,0,1,134.6524,61.2109Zm7.086,33.3945a95.67,95.67,0,1,1-95.668,95.668A95.6814,95.6814,0,0,1,141.7305,94.59Zm5.7305,28.5625a65.6591,65.6591,0,0,1,27.9335,8.8946l1.5977-2.0664,2.9023,4.8906,4.5,3.3711,8.3672,1.1406-2.6484,4.0859.168.2891a67.326,67.326,0,0,1-44.418,113.7109l.0352-.0156c-.5938,1.9063-1.5235,4.7578-2.0625,6.461-.5391,1.7148-3.5274,2.0937-4.1446.375-.5625-1.5743-1.1758-4.25-2.2109-6.84h.0039a67.326,67.326,0,0,1-44.418-113.7109L90.27,139.5078l8.3672-1.1367,4.5-3.375,2.9024-4.8906,1.5976,2.0664.0391.0234a70.2457,70.2457,0,0,1,28.2773-9.1445l.0274.1406c1.7734-4.0508,1.8828-4.8633,3.5586-7.6641-.086.3008.8281.6446.77.9532-.43,2.1718-1.3164,4.4609-1.7422,6.5664l.0664.02a35.7649,35.7649,0,0,1,6.1367,0l.1055-.0586c-1.2148-6.02-1.5312-4.5351-1.207-4.707a4.0937,4.0937,0,0,1,1.7148-.1172c.3282.082.2657.4453.4883,1.0117C146.1953,120.0234,146.8047,121.3359,147.461,123.1523ZM64.1094,207.16a5.4408,5.4408,0,0,1,6.8516,3.4921l3.4023,10.4649L57.52,226.59l-3.3984-10.4609a5.4407,5.4407,0,0,1,3.4922-6.8594,5.528,5.528,0,0,1,3.6992.34A5.5169,5.5169,0,0,1,64.1094,207.16Zm1.25,3.8476a1.3876,1.3876,0,0,0-.8945,1.7539l1.9921,6.1367-4.3945-.4336-1.4453-4.4492a1.3794,1.3794,0,0,0-1.7539-.8945,1.3854,1.3854,0,0,0-.8945,1.7578l2.1484,6.6133,9.1445-2.9727-2.1484-6.6172a1.35,1.35,0,0,0-.6914-.8125A1.3756,1.3756,0,0,0,65.3594,211.0078Zm2.0039-23.1406L68.625,198.16l-3.8008,2.25-.707-5.75-6.6523,3.98,11.6523,3.5352.5586,4.5234-18.5352-5.625-.3984-3.2656Zm-15.7266-12.5,3.8789,2.1172-.3867,4.4062,13.6094,1.1953-.3555,4.0313-13.6054-1.1914-.543,6.1719-4.0313-.3516Zm5.8985-19.582,3.25,2.9921-1.4414,4.1875L72.2617,167.41l-1.32,3.8281-12.914-4.4414-2.02,5.8554L52.18,171.34ZM81.3906,148.27l-7.59,13.1446-15.3359-8.8516,2.0234-3.5078,11.8281,6.832,5.5664-9.6406Zm10.0235-11.2109-9.9571,11.457L68.0938,136.8945l9.957-11.4531,1.8906,3.9922-6.1406,7.0625,2.1016,1.8242,5.6445-6.4844,3.0547,2.6485-5.6446,6.4922,2.1016,1.8281,7.3008-8.4024Zm10.0742-14.07a5.4483,5.4483,0,0,1-1.3359,7.5781l-9.0157,6.3125-2.32-3.3164,9.0156-6.3086a1.3663,1.3663,0,0,0,.5743-.9023,1.4078,1.4078,0,0,0-1.1328-1.6172,1.3542,1.3542,0,0,0-1.0391.2343l-4.5586,3.1954a5.4385,5.4385,0,1,1-6.2383-8.91l9.0117-6.3164.8711,4.332-7.5625,5.2969a1.3548,1.3548,0,0,0-.5781.8984,1.3911,1.3911,0,0,0,2.1758,1.3829l4.5586-3.1954a5.4444,5.4444,0,0,1,7.5742,1.336Zm9.4844-18.7149.2578,4.41-3.9414,2.0117,6.1992,12.1719-3.6055,1.8359L103.68,112.5312,98.16,115.3437l-1.84-3.6054Zm21.25,13.7344-10.1485,2.1563-2.5742-3.59,5.668-1.207-4.543-6.2774-2.5039,11.9141-4.457.9492,3.9883-18.9492,3.2148-.6875Zm16.164-.3906-5.6172.1015-6.3906-6.7226,1.6992-4.0742,4.68-.0821a1.33,1.33,0,0,0,.9805-.4257,1.4056,1.4056,0,0,0-.0352-1.9727,1.3416,1.3416,0,0,0-.9961-.3867l-6.9531.1211.2383,13.664-4.0469.0664-.3086-17.707,11-.1914a5.4384,5.4384,0,0,1,.1953,10.875l-.91.0117Zm22.0235,5.3047-7.3321-1.961a8.8566,8.8566,0,0,1,4.586-17.1093l7.3281,1.9648-2.7578,3.4531-5.6211-1.5078a4.8064,4.8064,0,1,0-2.4883,9.2852l3.4219.9179.7226-2.6875-4.1562-1.1132,2.7578-3.4493,6.3555,1.6993Zm16.4609,9.5-9.07-5.0313.4141-4.3984,5.0664,2.8086.6914-7.7149-9.7071,7.3438-3.9882-2.207,15.4453-11.6875,2.875,1.5937Zm10.7656,10.7656L186.5352,132.84l12.0781-12.957,2.9609,2.7617-9.3164,9.9922,8.1407,7.59Zm10.1758,15.68-5.6484-8.6953,2.43-3.6953L207.75,151.34l4.2344-6.4921-12.0234,1.93-2.4805-3.8242,19.1211-3.0664,1.7929,2.7578Zm4.375,12.0742-2.3672-5.8633a8.8536,8.8536,0,1,1,16.418-6.6328l2.3672,5.8633-4.4141-.125-1.707-4.2188a4.8064,4.8064,0,1,0-8.9141,3.5977l2.3711,5.8633Zm20.2149,12.6055-4.3125-.9688-.8438-4.3437-13.41,2.6054-.7735-3.9726,13.41-2.6055-1.1836-6.0859,3.9765-.77Zm-17.7852,7.2187-.1406-4.0429,17.6992-.6211.1406,4.0468Zm-1.418,15.0742.77-6.2812a8.8549,8.8549,0,1,1,17.5781,2.1562l-.7695,6.2774-3.8008-2.25.5547-4.5195a4.8074,4.8074,0,1,0-9.543-1.1719l-.77,6.2773Zm-5.4648,17.8985,3.207-9.8594,4.3946-.4375-1.7891,5.5117,7.7109-.7969-9.0664-8.1289,1.4063-4.332,14.4179,12.9336L227,221.7539ZM115.4922,272.43a4.7479,4.7479,0,0,1-6.16,2.6172l-8.871-3.586,5.77-14.2851,8.8711,3.5859a4.7329,4.7329,0,0,1,2.6133,6.16,4.8009,4.8009,0,0,1-2.293,2.2734A4.804,4.804,0,0,1,115.4922,272.43Zm-3.2656-1.32a1.1964,1.1964,0,0,0-.668-1.5742l-5.2031-2.1016,2.7461-2.6875,3.7734,1.5234a1.2141,1.2141,0,0,0,1.5742-1.5937,1.1659,1.1659,0,0,0-.664-.6485l-5.6094-2.2656-3.1328,7.75,5.6094,2.2656a1.1725,1.1725,0,0,0,.9257-.0039A1.1547,1.1547,0,0,0,112.2266,271.1094Zm20.7969,5.0312a4.7289,4.7289,0,0,1-5.5469,3.7422l-9.3906-1.8281.6679-3.4531,9.3946,1.8242a1.21,1.21,0,1,0,.4648-2.375l-4.7539-.9219a4.7314,4.7314,0,0,1,1.8047-9.2891l9.3945,1.8321-2.1836,3.1562-7.8828-1.5312a1.21,1.21,0,1,0-.4609,2.375l4.7539.9218a4.7356,4.7356,0,0,1,3.7383,5.5469Zm17.8554,4.4961-6.5937.2305a7.7,7.7,0,1,1-.5391-15.3906l6.5977-.2305-1.418,3.57-5.0586.1758a4.18,4.18,0,1,0,.293,8.3555l3.0781-.1055-.082-2.4219-3.7383.1328,1.414-3.57,5.7188-.2031Zm24.3672-20.9648-6.8242,2.8242,3.2539,7.793,5.4766-2.2852a1.06,1.06,0,0,1,.3359,2.09l-5.0156,2.1055,1.2734,3.0586,6.5547-2.7109a4.45,4.45,0,0,0,1.207-1.2344,3.83,3.83,0,0,0,.2735-3.6523,4.9283,4.9283,0,0,0-2.6875-2.8985,4.8114,4.8114,0,0,0-1.7071-.375l-3.57,1.4922-.7109-1.707,2.0859-.8711Zm-12.1367,7.625-1.4688,11.3867,3.6289-.93q.5919-3.9843,1.5665-11.4141l-.8438-3.2929-7.8477,2.0156.8438,3.2852Zm-96.1524-41.18q11.9766,23.15,30.6915,34.3711l1.8789-3h.0039a79.7444,79.7444,0,0,1-29.3828-32.91Zm-4.4023,2.1211c7.02,14.789,17.52,26.6836,32.5391,36.332l1.8047-2.8789A84.7062,84.7062,0,0,1,65.68,226.7305l-3.125,1.5078,3.125-1.5078Zm153.2344-.8047q-12.3925,22.9395-31.3008,33.82l-1.8242-3.0352H182.66A79.7158,79.7158,0,0,0,212.625,225.84Zm4.3633,2.1992c-7.2813,14.6641-18.0352,26.3945-33.2227,35.7734l.0391-.0234-1.75-2.9141a84.732,84.732,0,0,0,31.84-34.3984Z" transform="translate(0 0.0938)"/><path class="cls-2" d="M148.8242,61.1953V-.0938L283.4727,87.3477,260.3281,139.32l-.0273.0195A128.9994,128.9994,0,0,0,148.82,61.2109Z" transform="translate(0 0.0938)"/><rect class="cls-1" x="99" y="311.0938" width="36" height="153.8008"/><g class="cls-3"><path class="cls-2" d="M134.6445,318.2656V464.7891l-28.9687-18.8633L99.7422,311.3672A127.7273,127.7273,0,0,0,134.6445,318.2656Z" transform="translate(0 0.0938)"/></g><rect class="cls-1" x="148" y="311.0938" width="36" height="153.8008"/><g class="cls-4"><path class="cls-2" d="M148.82,318.2656V464.7891l28.9688-18.8633,5.9336-134.5586A127.7272,127.7272,0,0,1,148.82,318.2656Z" transform="translate(0 0.0938)"/></g><path class="cls-2" d="M141.6094,170.5234c3.8242,16.18,5.9766,22.9453,1.7031,27.0391-1.082,5.9531,2.3242,6.1211,10.7031,8.0508q-1.3125,12.8788-10.91,24.2148v3.1055a54.81,54.81,0,0,1,9.875,7.625q-5.6426,3.2813-11.3711,23.9336V264.43q-5.7363-20.6484-11.375-23.9258a54.282,54.282,0,0,1,9.875-7.625v-3.1133q-9.5976-11.3262-10.91-24.2148c8.3789-1.93,11.7852-2.09,10.7032-8.0469-4.2735-4.0937-2.1211-10.8594,1.707-27.0391Z" transform="translate(0 0.0938)"/><path class="cls-2" d="M138.2188,229.7383c-26.1133-8.7149-24.3985-51.3555,1.8711-114.1172-10.8164,30.5508-13.4219,63.9492-4.5391,86.4023q-2.42,1.77-7.9922,2.2461Q129.4981,219.75,138.2188,229.7383Z" transform="translate(0 0.0938)"/><path class="cls-2" d="M137.668,232.5625c-23.336.4414-33.4063-35.5977-25.793-91.7227q.0938,31.0782,5.711,44.8243-4.0957,37.623,20.3554,45.6757C137.8516,231.7461,137.7578,232.1562,137.668,232.5625Z" transform="translate(0 0.0938)"/><path class="cls-2" d="M109.8477,201.4844q5.9,31.6934,25.7929,32.68c-13.9687,8.539-38.1015-18.7422-40.0664-66.8633Q100.9591,189.76,109.8477,201.4844Z" transform="translate(0 0.0938)"/><path class="cls-2" d="M129.7461,238.4961c.6445-.5039,1.2891-1.0039,1.9336-1.5078q-13.4941,0-24.5937-18.4571-7.7812-4.0018-15.0118-19.1171Q106.7637,238.2617,129.7461,238.4961Z" transform="translate(0 0.0938)"/><path class="cls-2" d="M128.711,239.59q-8.6486,1.2364-19.1368-4.75,10.9044,9.0938,21.25,9.07-2.2734-2.7248-3.1718-2.82Q128.18,240.34,128.711,239.59Z" transform="translate(0 0.0938)"/><path class="cls-2" d="M144.9961,229.7969c26.1133-8.7071,25.7656-49.1446-.5039-111.9063,10.8164,30.5469,12.0547,61.7383,3.168,84.1953q2.4258,1.7637,7.9961,2.2422Q153.7168,219.8086,144.9961,229.7969Z" transform="translate(0 0.0938)"/><path class="cls-2" d="M145.5469,232.6211c23.3359.4414,33.4062-35.5977,25.793-91.7227q-.0937,31.0782-5.711,44.8243,4.0958,37.623-20.3554,45.6757C145.3633,231.8047,145.457,232.2148,145.5469,232.6211Z" transform="translate(0 0.0938)"/><path class="cls-2" d="M173.3672,201.5469q-5.9,31.6875-25.793,32.6758c13.9688,8.539,38.1016-18.7383,40.0664-66.8633Q182.2559,189.83,173.3672,201.5469Z" transform="translate(0 0.0938)"/><path class="cls-2" d="M153.4688,238.5547c-.6446-.5039-1.2891-1.0039-1.9336-1.5078q13.4941,0,24.5937-18.4571,7.7813-4.0019,15.0156-19.1171Q176.4493,238.32,153.4688,238.5547Z" transform="translate(0 0.0938)"/><path class="cls-2" d="M154.5039,239.6445q8.6484,1.2482,19.1367-4.75-10.9042,9.1055-21.25,9.0742,2.2735-2.7246,3.1719-2.82C155.211,240.6484,154.8594,240.1445,154.5039,239.6445Z" transform="translate(0 0.0938)"/><path class="cls-2" d="M119.336,237.5547A29.04,29.04,0,0,1,105.27,230.02q-2.5722-.703-1.2226,1.7891,12.3633,12.5155,27.9609,14.1445a14.5854,14.5854,0,0,1,3.25,6.4063v-.0039c-27.7968-3.4844-48.73-28.1914-48.73-57.5078a59.4,59.4,0,0,1,15.5664-40.2852l.0039.0039-9.5313-13.9219,6.668-.8984,10.6641,15.57q-6.627,5.5782-11.9766,15.7227l-.1094.2187c-2.289-10.5-4.1094-6.4883-2.6367,6.4141q-2.9766,8.1445-2.7813,19.5039C84.5508,186.0469,98.0664,230.2539,119.336,237.5547Z" transform="translate(0 0.0938)"/><path class="cls-2" d="M164.1133,237.4453a28.9724,28.9724,0,0,0,14.0625-7.5312q2.578-.7091,1.2266,1.789-12.3633,12.5157-27.961,14.1406a14.6,14.6,0,0,0-3.25,6.41c27.793-3.4922,48.7266-28.1953,48.7266-57.5117a59.3868,59.3868,0,0,0-15.5625-40.2813l-.0078.0039,9.5351-13.9257-6.6718-.8985-10.66,15.5742q6.627,5.5724,11.9766,15.7149l.1054.2187c2.2891-10.4961,4.1094-6.4843,2.6407,6.4141a54.3667,54.3667,0,0,1,2.7812,19.5078c7.8438-11.1367-5.6719,33.0742-26.9453,40.375Z" transform="translate(0 0.0938)"/><path class="cls-2" d="M109.7578,147.6641l-6.9414-10.1368,3.586-5.4336,4.8593,7.0977A63.7715,63.7715,0,0,0,109.7578,147.6641Z" transform="translate(0 0.0938)"/><path class="cls-2" d="M173.6875,147.5547l6.9453-10.1328-3.5859-5.4375-4.8594,7.1015A63.9174,63.9174,0,0,1,173.6875,147.5547Z" transform="translate(0 0.0938)"/><path class="cls-2" d="M113.68,152.32v-9.6016c.3672.5352.7305,1.07,1.0977,1.6055a53.4688,53.4688,0,0,1,15.25-6.07c-.7657,2.3086-1.5352,4.625-2.3008,6.9336A47.2117,47.2117,0,0,0,113.68,152.32Z" transform="translate(0 0.0938)"/><path class="cls-2" d="M169.77,152.2148v-9.6015l-1.1015,1.6054a53.52,53.52,0,0,0-15.2461-6.0742q1.1484,3.4746,2.3008,6.9336A47.3616,47.3616,0,0,1,169.77,152.2148Z" transform="translate(0 0.0938)"/><path class="cls-2" d="M134.1328,143.6719a47.4315,47.4315,0,0,1,15.1953,0v-.0391a33.7076,33.7076,0,0,0-1.3554-6.3516v.0313a53.3993,53.3993,0,0,0-12.5391,0A30.6639,30.6639,0,0,0,134.1328,143.6719Z" transform="translate(0 0.0938)"/><path class="cls-2" d="M42.6367,122.68,55.0781,139.32q29.0625-45.75,82.4024-49.0234v-19.5Q78.5938,73.65,42.6367,122.68Z" transform="translate(0 0.0938)"/><path class="cls-2" d="M51.0235,147.3086q-9.2169,18.68-9.625,42.84L22.6367,176.9062Q26.51,148.77,38.0078,130.2383Z" transform="translate(0 0.0938)"/><path class="cls-2" d="M41.8516,199.7305a99.2288,99.2288,0,0,0,9.5039,33.9453l-23.7617-7.0235a119.6017,119.6017,0,0,1-5.625-40.3086C41.8242,199.4531,41.8516,199.7305,41.8516,199.7305Z" transform="translate(0 0.0938)"/><path class="cls-2" d="M31.543,237.2109a119.5146,119.5146,0,0,0,19.7617,31.3868l25.625-2.0469a100.3765,100.3765,0,0,1-19.4336-22.0039Z" transform="translate(0 0.0938)"/><path class="cls-2" d="M59.3594,276.9805a119.8839,119.8839,0,0,0,23.5312,17.3242l19.7774-11.9883a99.5806,99.5806,0,0,1-15.0469-7.8945Z" transform="translate(0 0.0938)"/><path class="cls-2" d="M91.7461,298.8086a118.4251,118.4251,0,0,0,20.6055,7.207l10.4453-17.66a100.6568,100.6568,0,0,1-9.8438-2.3711Z" transform="translate(0 0.0938)"/><path class="cls-2" d="M120.9219,307.82a120.02,120.02,0,0,0,16.5586,1.6758v-19.5q-2.4434-.07-6.4531-.4492Z" transform="translate(0 0.0938)"/><path class="cls-2" d="M240.1719,122.5039l-12.4414,16.6406q-29.0625-45.75-82.4024-49.0156v-19.5Q204.215,73.4706,240.1719,122.5039Z" transform="translate(0 0.0938)"/><path class="cls-2" d="M231.7852,147.1328q9.2167,18.6855,9.625,42.84l18.7617-13.2422q-3.873-28.1309-15.3711-46.668Z" transform="translate(0 0.0938)"/><path class="cls-2" d="M240.957,199.5547a99.2747,99.2747,0,0,1-9.5039,33.9492l23.7618-7.0234a119.6068,119.6068,0,0,0,5.625-40.3086C240.9844,199.2773,240.957,199.5547,240.957,199.5547Z" transform="translate(0 0.0938)"/><path class="cls-2" d="M251.2656,237.0312a119.3848,119.3848,0,0,1-19.7617,31.3946l-25.625-2.0469a100.6022,100.6022,0,0,0,19.4375-22.0078Z" transform="translate(0 0.0938)"/><path class="cls-2" d="M223.4492,276.8047a119.7621,119.7621,0,0,1-23.5312,17.3242l-19.7774-11.9883a99.4107,99.4107,0,0,0,15.0469-7.8867Z" transform="translate(0 0.0938)"/><path class="cls-2" d="M191.0625,298.6328a118.4366,118.4366,0,0,1-20.6055,7.2109L160.0117,288.18a99.5385,99.5385,0,0,0,9.8438-2.3711Z" transform="translate(0 0.0938)"/><path class="cls-2" d="M161.8867,307.6445a119.4155,119.4155,0,0,1-16.5586,1.6758v-19.5q2.4433-.0645,6.4532-.4492Z" transform="translate(0 0.0938)"/></g></svg>